<?xml version="1.0" encoding="UTF-8" standalone="no"?>
<svg
   xmlns:dc="http://purl.org/dc/elements/1.1/"
   xmlns:cc="http://creativecommons.org/ns#"
   xmlns:rdf="http://www.w3.org/1999/02/22-rdf-syntax-ns#"
   xmlns:svg="http://www.w3.org/2000/svg"
   xmlns="http://www.w3.org/2000/svg"
   xmlns:sodipodi="http://sodipodi.sourceforge.net/DTD/sodipodi-0.dtd"
   xmlns:inkscape="http://www.inkscape.org/namespaces/inkscape"
   inkscape:export-ydpi="32.512001"
   inkscape:export-xdpi="32.512001"
   inkscape:export-filename="D:\Projects\C\tilemap\resources\cloud.png"
   sodipodi:docname="cloud.svg"
   inkscape:version="1.0beta2 (589b019, 2020-04-03)"
   id="svg855"
   version="1.1"
   viewBox="0 0 200 200"
   height="200mm"
   width="200mm">
  <defs
     id="defs849" />
  <sodipodi:namedview
     inkscape:window-maximized="1"
     inkscape:window-y="-8"
     inkscape:window-x="-8"
     inkscape:window-height="1017"
     inkscape:window-width="1920"
     showgrid="false"
     inkscape:document-rotation="0"
     inkscape:current-layer="layer1"
     inkscape:document-units="mm"
     inkscape:cy="378.67692"
     inkscape:cx="353.36377"
     inkscape:zoom="0.98994949"
     inkscape:pageshadow="2"
     inkscape:pageopacity="0.0"
     borderopacity="1.0"
     bordercolor="#666666"
     pagecolor="#ffffff"
     id="base" />
  <metadata
     id="metadata852">
    <rdf:RDF>
      <cc:Work
         rdf:about="">
        <dc:format>image/svg+xml</dc:format>
        <dc:type
           rdf:resource="http://purl.org/dc/dcmitype/StillImage" />
        <dc:title></dc:title>
      </cc:Work>
    </rdf:RDF>
  </metadata>
  <g
     id="layer1"
     inkscape:groupmode="layer"
     inkscape:label="Layer 1">
    <path
       inkscape:connector-curvature="0"
       d="m 79.379166,41.724414 a 36.85268,36.85268 0 0 0 -36.853047,36.853048 36.85268,36.85268 0 0 0 0.652674,6.904487 36.85268,36.85268 0 0 0 -21.917009,33.690451 36.85268,36.85268 0 0 0 36.852532,36.85253 36.85268,36.85268 0 0 0 18.692399,-5.09271 36.85268,36.85268 0 0 0 17.806665,4.58835 36.85268,36.85268 0 0 0 23.982,-8.87078 36.85268,36.85268 0 0 0 26.53172,11.2758 36.85268,36.85268 0 0 0 36.85304,-36.85253 36.85268,36.85268 0 0 0 -21.16563,-33.346804 36.85268,36.85268 0 0 0 0.0512,-1.932699 36.85268,36.85268 0 0 0 -36.85257,-36.852529 36.85268,36.85268 0 0 0 -17.67179,4.513418 36.85268,36.85268 0 0 0 -26.962184,-11.730032 z"
       style="fill:#ffffff;fill-opacity:1;stroke:#000000;stroke-width:0.964999;stroke-linecap:round;stroke-opacity:1"
       id="path1418" />
  </g>
</svg>
