<?xml version="1.0" encoding="UTF-8" standalone="no"?>
<svg
   xmlns:dc="http://purl.org/dc/elements/1.1/"
   xmlns:cc="http://creativecommons.org/ns#"
   xmlns:rdf="http://www.w3.org/1999/02/22-rdf-syntax-ns#"
   xmlns:svg="http://www.w3.org/2000/svg"
   xmlns="http://www.w3.org/2000/svg"
   xmlns:sodipodi="http://sodipodi.sourceforge.net/DTD/sodipodi-0.dtd"
   xmlns:inkscape="http://www.inkscape.org/namespaces/inkscape"
   inkscape:export-ydpi="25.4"
   inkscape:export-xdpi="25.4"
   inkscape:export-filename="D:\Projects\C\tilemap\resources\pig.png"
   sodipodi:docname="pig.svg"
   inkscape:version="1.0beta2 (589b019, 2020-04-03)"
   id="svg8"
   version="1.1"
   viewBox="0 0 128 64"
   height="64mm"
   width="128mm">
  <defs
     id="defs2" />
  <sodipodi:namedview
     inkscape:window-maximized="1"
     inkscape:window-y="-8"
     inkscape:window-x="-8"
     inkscape:window-height="1017"
     inkscape:window-width="1920"
     showgrid="false"
     inkscape:document-rotation="0"
     inkscape:current-layer="layer1"
     inkscape:document-units="mm"
     inkscape:cy="73.596274"
     inkscape:cx="163.12067"
     inkscape:zoom="0.98994949"
     inkscape:pageshadow="2"
     inkscape:pageopacity="0.0"
     borderopacity="1.0"
     bordercolor="#666666"
     pagecolor="#ffffff"
     id="base" />
  <metadata
     id="metadata5">
    <rdf:RDF>
      <cc:Work
         rdf:about="">
        <dc:format>image/svg+xml</dc:format>
        <dc:type
           rdf:resource="http://purl.org/dc/dcmitype/StillImage" />
        <dc:title></dc:title>
      </cc:Work>
    </rdf:RDF>
  </metadata>
  <g
     id="layer1"
     inkscape:groupmode="layer"
     inkscape:label="Layer 1">
    <path
       sodipodi:nodetypes="ssssssssss"
       inkscape:connector-curvature="0"
       d="m 83.081125,59.109039 c 0,0 -0.690971,1.381585 -1.471536,1.91634 -0.780567,0.534755 -1.416619,0.154734 -2.535237,0.06519 -1.118619,-0.08953 -1.559579,0.309668 -2.245142,-0.342443 -0.685562,-0.65211 -1.083168,-1.396217 -1.162375,-2.301202 0,0 -0.484077,-2.240404 0.296486,-2.775159 0.780567,-0.534755 2.551799,-0.228505 3.670417,-0.138959 1.118619,0.08953 2.634385,-0.05067 3.319949,0.601438 0.685563,0.652112 0.448791,2.12509 0.127433,2.974797 z"
       style="fill:#ffdfdf;fill-opacity:1;stroke:#000000;stroke-width:1.82;stroke-linecap:round;stroke-miterlimit:4;stroke-dasharray:none;stroke-opacity:1"
       id="path966-0-6" />
    <path
       sodipodi:nodetypes="csssc"
       inkscape:connector-curvature="0"
       id="path1035"
       d="m 19.533004,13.018129 c 0,0 -5.667265,-7.4289202 -10.2336939,-2.770762 C 6.4192138,13.18532 6.8706354,16.29616 10.063647,15.425339 13.256658,14.554518 13.565449,10.311695 8.1009856,8.1470335 2.0344114,5.7438538 1.0193868,10.562297 1.9869656,12.981245"
       style="fill:none;fill-opacity:1;stroke:#000000;stroke-width:1.82;stroke-linecap:round;stroke-linejoin:miter;stroke-miterlimit:4;stroke-dasharray:none;stroke-opacity:1" />
    <path
       id="path966-0"
       style="fill:#ffdfdf;fill-opacity:1;stroke:#000000;stroke-width:1.82;stroke-linecap:round;stroke-miterlimit:4;stroke-dasharray:none;stroke-opacity:1"
       d="m 38.506459,58.566886 c 0,0 -0.690972,1.381585 -1.471536,1.91634 -0.780567,0.534756 -1.41662,0.154735 -2.535238,0.06519 -1.118618,-0.08953 -1.559579,0.309666 -2.245142,-0.342445 -0.685562,-0.652109 -1.083167,-1.396216 -1.162375,-2.301201 0,0 -0.484077,-2.240404 0.296486,-2.77516 0.780567,-0.534755 2.551799,-0.228505 3.670417,-0.138959 1.11862,0.08953 2.634385,-0.05067 3.31995,0.601439 0.685562,0.652112 0.448791,2.125089 0.127432,2.974796 z"
       inkscape:connector-curvature="0"
       sodipodi:nodetypes="ssssssssss" />
    <path
       sodipodi:nodetypes="ssssssssss"
       inkscape:connector-curvature="0"
       d="m 30.982925,61.031508 c 0,0 -0.578533,1.432312 -1.313942,2.027645 -0.735409,0.59533 -1.382362,0.294545 -2.504556,0.294545 -1.122197,0 -1.547294,0.405843 -2.282703,-0.189487 -0.735408,-0.595332 -1.191118,-1.305341 -1.342281,-2.201121 0,0 -0.661294,-2.194636 0.07411,-2.789967 0.735409,-0.595332 2.525429,-0.431383 3.647626,-0.431383 1.122197,0 2.621944,-0.260706 3.357352,0.334624 0.735409,0.595333 0.616921,2.082505 0.364389,2.955144 z"
       style="fill:#ffdfdf;fill-opacity:1;stroke:#000000;stroke-width:1.82;stroke-linecap:round;stroke-miterlimit:4;stroke-dasharray:none;stroke-opacity:1"
       id="path966" />
    <path
       id="path840-9-4-6"
       style="fill:#ffdfdf;fill-opacity:1;stroke:#000000;stroke-width:1.82;stroke-linecap:round;stroke-miterlimit:4;stroke-dasharray:none;stroke-opacity:1"
       d="m 86.788507,34.725374 c -0.07411,3.136954 -0.590515,4.977958 -0.590515,8.75659 0,3.77863 -0.872001,9.662592 -2.060601,12.138843 -1.188601,2.476251 -2.6938,2.092134 -4.507543,2.092134 -1.813742,0 -3.592615,0.384117 -4.781215,-2.092134 -1.1886,-2.476251 -1.786928,-8.360213 -1.786928,-12.138843 0,-3.778632 -0.274003,-4.668067 -0.744544,-8.239007"
       inkscape:connector-curvature="0"
       sodipodi:nodetypes="csssssc" />
    <path
       sodipodi:nodetypes="csssssc"
       inkscape:connector-curvature="0"
       d="m 42.642788,34.010735 c -0.07411,3.136954 -0.590516,4.977959 -0.590516,8.756589 0,3.778632 -0.872001,9.662594 -2.060601,12.138844 -1.188601,2.47625 -2.6938,2.092135 -4.507542,2.092135 -1.813743,0 -3.592614,0.384115 -4.781215,-2.092135 -1.1886,-2.47625 -1.786929,-8.360212 -1.786929,-12.138844 0,-3.77863 -0.274002,-4.668066 -0.744544,-8.239007"
       style="fill:#ffdfdf;fill-opacity:1;stroke:#000000;stroke-width:1.82;stroke-linecap:round;stroke-miterlimit:4;stroke-dasharray:none;stroke-opacity:1"
       id="path840-9-4" />
    <path
       sodipodi:nodetypes="sssssssss"
       inkscape:connector-curvature="0"
       d="m 94.423608,25.016111 c 0,7.000366 -1.619067,13.338009 -10.181327,17.92556 -8.56226,4.587551 -20.197397,2.780631 -33.262964,2.780631 -13.065569,0 -15.992495,1.80692 -24.554755,-2.780631 -8.562261,-4.587551 -9.21375,-10.925194 -9.21375,-17.92556 0,-7.000366 0.651489,-13.338009 9.21375,-17.9255595 8.56226,-4.5875509 11.29567,-3.7482107 24.361239,-3.7482092 13.065568,0 24.89422,-0.8393417 33.45648,3.7482092 8.56226,4.5875505 10.181327,10.9251935 10.181327,17.9255595 z"
       style="fill:#ffdfdf;fill-opacity:1;stroke:#000000;stroke-width:1.82;stroke-linecap:round;stroke-miterlimit:4;stroke-dasharray:none;stroke-opacity:1"
       id="path837" />
    <path
       sodipodi:nodetypes="csssssc"
       inkscape:connector-curvature="0"
       d="m 34.492432,36.62506 c -0.07411,3.136955 -0.590516,4.977959 -0.590516,8.756589 0,3.778632 -0.872001,9.662594 -2.060602,12.138844 -1.1886,2.47625 -2.693799,2.092135 -4.507542,2.092135 -1.813743,0 -3.592614,0.384115 -4.781214,-2.092135 -1.188601,-2.47625 -1.786929,-8.360212 -1.786929,-12.138844 0,-3.77863 -1.368693,-7.746883 -2.454998,-11.317824"
       style="fill:#ffdfdf;fill-opacity:1;stroke:#000000;stroke-width:1.82;stroke-linecap:round;stroke-miterlimit:4;stroke-dasharray:none;stroke-opacity:1"
       id="path840" />
    <path
       sodipodi:nodetypes="cccc"
       inkscape:connector-curvature="0"
       d="M 80.520912,19.464236 77.689536,2.6887173 91.00485,4.1124304 Z"
       inkscape:transform-center-x="1.8937738e-06"
       style="fill:#ffdfdf;fill-opacity:1;stroke:#000000;stroke-width:1.82;stroke-linecap:round;stroke-miterlimit:4;stroke-dasharray:none;stroke-opacity:1"
       id="path903" />
    <path
       id="path903-1"
       style="fill:#ffdfdf;fill-opacity:1;stroke:#000000;stroke-width:1.82;stroke-linecap:round;stroke-miterlimit:4;stroke-dasharray:none;stroke-opacity:1"
       inkscape:transform-center-x="2.6321384e-06"
       d="M 115.24455,17.039143 114.79186,1.7688224 104.07643,3.1925355 Z"
       inkscape:connector-curvature="0"
       sodipodi:nodetypes="cccc" />
    <path
       inkscape:connector-curvature="0"
       d="M 116.82476,20.614275 A 18.199231,18.199231 0 0 1 98.625502,38.813506 18.199231,18.199231 0 0 1 80.426272,20.614275 18.199231,18.199231 0 0 1 98.625502,2.4150448 18.199231,18.199231 0 0 1 116.82476,20.614275 Z"
       style="fill:#ffdfdf;fill-opacity:1;stroke:#000000;stroke-width:1.82;stroke-linecap:round;stroke-miterlimit:4;stroke-dasharray:none;stroke-opacity:1"
       id="path843" />
    <path
       sodipodi:nodetypes="sssss"
       inkscape:connector-curvature="0"
       d="m 116.848,25.339588 c 0,4.221595 -2.49495,5.990847 -6.74271,6.822856 -4.19162,0.821014 -8.52156,-2.053919 -8.52156,-6.275511 0,-4.221593 3.23524,-7.096526 7.83738,-7.643874 4.29818,-0.511196 7.42689,2.874933 7.42689,7.096529 z"
       style="fill:#ffdfdf;fill-opacity:1;stroke:#000000;stroke-width:1.82;stroke-linecap:round;stroke-miterlimit:4;stroke-dasharray:none;stroke-opacity:1"
       id="path860" />
    <ellipse
       ry="1.8383999"
       rx="1.1610948"
       cy="25.499895"
       cx="108.26001"
       id="path863"
       style="fill:#885353;fill-opacity:1;stroke:#000000;stroke-width:1.82;stroke-linecap:round;stroke-miterlimit:4;stroke-dasharray:none;stroke-opacity:1" />
    <ellipse
       style="fill:#885353;fill-opacity:1;stroke:#000000;stroke-width:1.82;stroke-linecap:round;stroke-miterlimit:4;stroke-dasharray:none;stroke-opacity:1"
       id="path863-9"
       cx="112.80765"
       cy="24.725838"
       rx="1.1610948"
       ry="1.8383999" />
    <ellipse
       ry="2.6683083"
       rx="1.231527"
       cy="15.072405"
       cx="98.830788"
       id="path882"
       style="fill:#000000;fill-opacity:1;stroke:none;stroke-width:1.82;stroke-linecap:round;stroke-miterlimit:4;stroke-dasharray:none;stroke-opacity:1" />
    <ellipse
       style="fill:#000000;fill-opacity:1;stroke:none;stroke-width:1.82;stroke-linecap:round;stroke-miterlimit:4;stroke-dasharray:none;stroke-opacity:1"
       id="path882-1"
       cx="111.76179"
       cy="13.909295"
       rx="1.231527"
       ry="2.6683083" />
    <path
       id="path966-5"
       style="fill:#ffdfdf;fill-opacity:1;stroke:#000000;stroke-width:1.82;stroke-linecap:round;stroke-miterlimit:4;stroke-dasharray:none;stroke-opacity:1"
       d="m 76.898361,60.87577 c 0,0 -0.578533,1.432313 -1.313942,2.027644 -0.735409,0.595331 -1.382362,0.294546 -2.504556,0.294546 -1.122197,0 -1.547294,0.405843 -2.282703,-0.189488 -0.735408,-0.59533 -1.191118,-1.30534 -1.342281,-2.20112 0,0 -0.661294,-2.194636 0.07411,-2.789967 0.735409,-0.595332 2.52543,-0.431383 3.647626,-0.431383 1.122197,0 2.621944,-0.260707 3.357353,0.334624 0.735408,0.595332 0.61692,2.082505 0.364389,2.955144 z"
       inkscape:connector-curvature="0"
       sodipodi:nodetypes="ssssssssss" />
    <path
       id="path840-9"
       style="fill:#ffdfdf;fill-opacity:1;stroke:#000000;stroke-width:1.82;stroke-linecap:round;stroke-miterlimit:4;stroke-dasharray:none;stroke-opacity:1"
       d="m 80.453715,36.849776 c -0.07411,3.136954 -0.590516,4.977958 -0.590516,8.756589 0,3.778631 -0.871999,9.662593 -2.0606,12.138843 -1.188601,2.476251 -2.693799,2.092135 -4.507542,2.092135 -1.813744,0 -3.592615,0.384116 -4.781215,-2.092135 -1.188601,-2.47625 -1.786928,-8.360212 -1.786928,-12.138843 0,-3.778631 -0.274003,-4.668066 -0.744544,-8.239008"
       inkscape:connector-curvature="0"
       sodipodi:nodetypes="csssssc" />
  </g>
</svg>
