<?xml version="1.0" encoding="UTF-8" standalone="no"?>
<svg
   xmlns:dc="http://purl.org/dc/elements/1.1/"
   xmlns:cc="http://creativecommons.org/ns#"
   xmlns:rdf="http://www.w3.org/1999/02/22-rdf-syntax-ns#"
   xmlns:svg="http://www.w3.org/2000/svg"
   xmlns="http://www.w3.org/2000/svg"
   xmlns:sodipodi="http://sodipodi.sourceforge.net/DTD/sodipodi-0.dtd"
   xmlns:inkscape="http://www.inkscape.org/namespaces/inkscape"
   sodipodi:docname="running4.svg"
   inkscape:version="1.0beta2 (589b019, 2020-04-03)"
   id="svg8"
   version="1.1"
   viewBox="0 0 52.0662 71.81942"
   height="271.44348"
   width="196.78564"
   inkscape:export-filename="D:\Projects\C\tilemap\resources\player\running4_R.png"
   inkscape:export-xdpi="42.216888"
   inkscape:export-ydpi="42.216888">
  <defs
     id="defs2" />
  <sodipodi:namedview
     units="px"
     fit-margin-bottom="0"
     fit-margin-right="0"
     fit-margin-left="0"
     fit-margin-top="0"
     inkscape:window-maximized="1"
     inkscape:window-y="-8"
     inkscape:window-x="-8"
     inkscape:window-height="1017"
     inkscape:window-width="1920"
     showgrid="false"
     inkscape:document-rotation="0"
     inkscape:current-layer="layer1"
     inkscape:document-units="mm"
     inkscape:cy="135.43398"
     inkscape:cx="16.756364"
     inkscape:zoom="2.8284271"
     inkscape:pageshadow="2"
     inkscape:pageopacity="0.0"
     borderopacity="1.0"
     bordercolor="#666666"
     pagecolor="#ffffff"
     id="base">
    <inkscape:grid
       originy="71.81942"
       originx="52.0662"
       units="pc"
       spacingy="0.26458333"
       spacingx="0.26458333"
       dotted="false"
       empspacing="10"
       id="grid884"
       type="xygrid" />
  </sodipodi:namedview>
  <metadata
     id="metadata5">
    <rdf:RDF>
      <cc:Work
         rdf:about="">
        <dc:format>image/svg+xml</dc:format>
        <dc:type
           rdf:resource="http://purl.org/dc/dcmitype/StillImage" />
        <dc:title />
      </cc:Work>
    </rdf:RDF>
  </metadata>
  <g
     style="display:inline"
     transform="translate(-140.78822,-23.453899)"
     id="layer1"
     inkscape:groupmode="layer"
     inkscape:label="Layer 1">
    <path
       id="rect857-5-5-3"
       style="fill:#ffffff;fill-opacity:1;stroke:#000000;stroke-width:0.965;stroke-miterlimit:4;stroke-dasharray:none;stroke-opacity:1"
       d="m 160.95802,67.513262 c 1.92903,1.117716 3.19655,0.750531 5.53142,3.353105 1.80643,2.013544 4.81273,3.960684 3.67555,5.721321 -2.79198,4.322684 -4.2507,5.908473 -6.12249,8.158708 -0.55542,0.667837 -4.01565,2.337179 1.52702,5.736233 3.11236,1.908662 3.76211,-0.378091 3.67556,-1.850521 -0.0866,-1.472439 -1.76531,-1.471336 -1.18317,-2.537173 1.4484,-2.651895 6.88408,-6.386838 9.02098,-9.924465 1.57841,-2.613029 -4.0043,-8.477821 -4.0043,-8.477821"
       inkscape:connector-curvature="0"
       sodipodi:nodetypes="csssssssc" />
    <path
       sodipodi:nodetypes="cssssssc"
       inkscape:connector-curvature="0"
       d="m 160.53031,46.695649 c 0.51472,1.921679 -0.99284,4.420414 0.68362,6.378071 2.06644,2.413039 2.10902,2.381753 4.74748,3.648906 0.78298,0.376079 0.9764,2.174116 0.54209,2.926371 -0.43432,0.752257 -1.23483,1.374313 -2.07713,1.162072 -3.48088,-0.877113 -4.92582,-2.806496 -7.93812,-6.769512 -1.48197,-1.949696 -1.37576,-6.313751 0.23024,-10.412638 1.04613,-2.669955 3.70973,-2.942687 5.76369,-5.012088"
       style="fill:#ffffff;fill-opacity:1;stroke:#000000;stroke-width:0.965;stroke-miterlimit:4;stroke-dasharray:none;stroke-opacity:1"
       id="rect857" />
    <path
       sodipodi:nodetypes="csssssssc"
       inkscape:connector-curvature="0"
       d="m 158.59781,68.938957 c -0.026,-1.743415 0.36853,-6.587155 0.30737,-9.546278 -0.0755,-3.651858 0.55424,-8.060456 0.55424,-12.949262 0,-4.888805 1.06018,-6.339105 4.33074,-8.84338 1.88964,-1.446893 1.71823,-0.111019 4.19047,-0.108806 2.46342,0.0022 4.63089,1.143205 6.11519,3.060168 0.84844,1.095755 1.40103,2.520628 1.38927,3.869813 -0.012,1.376224 -0.40528,6.151042 -1.09039,8.332873 -1.46949,4.679826 -1.15743,12.03718 -1.31612,14.938564"
       style="fill:#ffffff;fill-opacity:1;stroke:#000000;stroke-width:0.965;stroke-linecap:round;stroke-miterlimit:4;stroke-dasharray:none;stroke-opacity:1"
       id="rect854" />
    <path
       sodipodi:nodetypes="csssssc"
       inkscape:connector-curvature="0"
       d="m 168.79834,65.85264 c -1.93047,5.007852 -6.84842,8.422395 -8.12357,12.36074 -1.4887,4.597886 -6.05936,10.422957 -6.04465,13.34989 0,0 3.15952,4.260539 -1.86489,2.870615 -5.17015,-1.43024 -2.72637,-6.028459 -2.19489,-6.715514 0.50922,-0.658279 1.59968,-3.386273 2.97058,-8.31778 0.63822,-2.295849 5.01608,-9.112458 5.24508,-15.260677"
       style="fill:#ffffff;fill-opacity:1;stroke:#000000;stroke-width:0.965;stroke-miterlimit:4;stroke-dasharray:none;stroke-opacity:1"
       id="rect857-5-5" />
    <path
       sodipodi:nodetypes="cssssssc"
       inkscape:connector-curvature="0"
       d="m 160.51961,40.104312 c 0,0 3.62971,-1.885362 3.33339,-4.84716 -0.0817,-0.816344 -0.66938,-3.29199 -0.81941,-4.253728 -0.65355,-4.189572 1.1206,-6.835299 4.51279,-6.8353 3.39219,1e-6 5.61428,1.646759 5.61428,5.887002 0,1.461295 -0.15894,3.676504 -0.67056,4.912064 -0.48651,1.174845 -0.98864,2.074797 -1.78877,2.539298 -0.80014,0.4645 -1.75654,0.635289 -2.86812,0.63529"
       style="fill:#ffffff;fill-opacity:1;stroke:#000000;stroke-width:0.965;stroke-miterlimit:4;stroke-dasharray:none;stroke-opacity:1"
       id="path26" />
    <path
       sodipodi:nodetypes="sssss"
       inkscape:connector-curvature="0"
       d="m 169.30363,31.611142 c 0,0.341153 -0.27656,0.452348 -0.61771,0.452349 -0.34116,4e-6 -0.61772,-0.111192 -0.61772,-0.452349 0,-0.341156 0.27656,-0.617717 0.61772,-0.617713 0.34115,2e-6 0.61771,0.276561 0.61771,0.617713 z"
       style="opacity:1;fill:#030000;fill-opacity:0.987952;stroke:none;stroke-width:0.426392;stroke-miterlimit:4;stroke-dasharray:none;stroke-opacity:1"
       id="path968" />
    <path
       id="path968-1"
       style="opacity:1;fill:#030000;fill-opacity:0.987952;stroke:none;stroke-width:0.426392;stroke-miterlimit:4;stroke-dasharray:none;stroke-opacity:1"
       d="m 172.28389,31.733678 c 0,0.341153 -0.27656,0.452348 -0.61771,0.452349 -0.34116,4e-6 -0.61772,-0.111192 -0.61772,-0.452349 0,-0.341156 0.27656,-0.617717 0.61772,-0.617713 0.34115,2e-6 0.61771,0.276561 0.61771,0.617713 z"
       inkscape:connector-curvature="0"
       sodipodi:nodetypes="sssss" />
    <path
       id="rect857-5"
       style="fill:#ffffff;fill-opacity:1;stroke:#000000;stroke-width:0.965;stroke-miterlimit:4;stroke-dasharray:none;stroke-opacity:1"
       d="m 166.55908,46.250896 c -0.0519,2.379827 0.53298,3.534255 3.27729,4.943053 1.95154,1.001832 7.03568,-0.03825 10.03881,0.296475 1.67767,0.186997 1.11998,2.563974 0.12637,3.187837 -0.97355,0.611273 -2.02846,0.778195 -2.89637,0.81376 -3.52866,0.144598 -8.11745,0.181756 -10.94435,-0.118984 -1.9699,-0.209568 -3.31093,-3.029232 -4.93384,-5.850269 -1.95718,-3.402084 -1.41408,-8.249748 0.50028,-10.227834"
       inkscape:connector-curvature="0"
       sodipodi:nodetypes="cssssssc" />
  </g>
</svg>
